<svg xmlns="http://www.w3.org/2000/svg" viewBox="0 0 160 160">
  <defs>
    <linearGradient id="halo" x1="0%" y1="0%" x2="100%" y2="100%">
      <stop offset="0%" stop-color="#1b7bff"/>
      <stop offset="100%" stop-color="#3fa8ff"/>
    </linearGradient>
  </defs>
  <circle cx="32" cy="82" r="20" fill="#1b7bff" opacity="0.2"/>
  <circle cx="128" cy="82" r="20" fill="#1b7bff" opacity="0.2"/>
  <path d="M80 18c22 0 41 11 49 29 2.7 6.4 4 13.4 4 21v24c0 28.7-23.3 52-52 52s-52-23.3-52-52V68c0-7.6 1.3-14.6 4-21 8-18 27-29 47-29z" fill="none" stroke="url(#halo)" stroke-width="12" stroke-linecap="round" stroke-linejoin="round"/>
  <path d="M102 16c7 0 12 3 16 9" fill="none" stroke="url(#halo)" stroke-width="10" stroke-linecap="round"/>
  <circle cx="40" cy="82" r="22" fill="url(#halo)" opacity="0.25"/>
  <circle cx="120" cy="82" r="22" fill="url(#halo)" opacity="0.25"/>
  <circle cx="60" cy="78" r="8" fill="#0b1633"/>
  <circle cx="100" cy="78" r="8" fill="#0b1633"/>
  <path d="M68 108c4.6 4.8 10.6 7.5 12 7.5s7.4-2.7 12-7.5" fill="none" stroke="#ff5f7c" stroke-width="6" stroke-linecap="round" stroke-linejoin="round"/>
  <circle cx="54" cy="96" r="7" fill="#ff9bb0" opacity="0.85"/>
  <circle cx="106" cy="96" r="7" fill="#ff9bb0" opacity="0.85"/>
</svg>
